HIERARCHY
ROOT root
{
	OFFSET	0	13.1	24.9
	CHANNELS 6  Xposition Yposition Zposition Xrotation Yrotation Zrotation
	JOINT spine_1
	{
		OFFSET	0	9.99999	0
		CHANNELS 3  Xrotation Yrotation Zrotation
		JOINT spine_2
		{
			OFFSET	0	112	-10
			CHANNELS 3  Xrotation Yrotation Zrotation
			JOINT spine_3
			{
				OFFSET	0	206.5	19.3
				CHANNELS 3  Xrotation Yrotation Zrotation
				JOINT spine_4
				{
					OFFSET	0	110.4	14.6
					CHANNELS 3  Xrotation Yrotation Zrotation
					JOINT neck_1
					{
						OFFSET	0	71.8	-50.3
						CHANNELS 3  Xrotation Yrotation Zrotation
						JOINT neck_2
						{
							OFFSET	0	86.2	-25.8
							CHANNELS 3  Xrotation Yrotation Zrotation
							JOINT head_ee
							{
								OFFSET	0	179.8	-8.7
								CHANNELS 3  Xrotation Yrotation Zrotation
								End Site
								{
									OFFSET	1	0	0
								}
							}
						}
					}
					JOINT left_clavicle
					{
						OFFSET	-43.2	22.4	-70.8
						CHANNELS 3  Xrotation Yrotation Zrotation
						JOINT left_shoulder
						{
							OFFSET	-93.9	-5.79999	48.7
							CHANNELS 3  Xrotation Yrotation Zrotation
							JOINT left_elbow
							{
								OFFSET	-291.4	-30.8	15.2
								CHANNELS 3  Xrotation Yrotation Zrotation
								JOINT left_lowarm_twist
								{
									OFFSET	-110.7	-3.89999	13.6
									CHANNELS 3  Xrotation Yrotation Zrotation
									JOINT left_hand
									{
										OFFSET	-110.7	-3.89999	13.6
										CHANNELS 3  Xrotation Yrotation Zrotation
										JOINT left_ee
										{
											OFFSET	-80.8	-5.10001	12.1
											CHANNELS 3  Xrotation Yrotation Zrotation
											End Site
											{
												OFFSET	1	0	0
											}
										}
									}
								}
							}
						}
					}
					JOINT right_clavicle
					{
						OFFSET	43.2	22.4	-70.8
						CHANNELS 3  Xrotation Yrotation Zrotation
						JOINT right_shoulder
						{
							OFFSET	93.9	-5.79999	48.7
							CHANNELS 3  Xrotation Yrotation Zrotation
							JOINT right_elbow
							{
								OFFSET	291.4	-30.8	15.2
								CHANNELS 3  Xrotation Yrotation Zrotation
								JOINT right_lowarm_twist
								{
									OFFSET	110.7	-3.89999	13.6
									CHANNELS 3  Xrotation Yrotation Zrotation
									JOINT right_hand
									{
										OFFSET	110.7	-3.89999	13.6
										CHANNELS 3  Xrotation Yrotation Zrotation
										JOINT right_ee
										{
											OFFSET	80.8	-5.10001	12.1
											CHANNELS 3  Xrotation Yrotation Zrotation
											End Site
											{
												OFFSET	1	0	0
											}
										}
									}
								}
							}
						}
					}
				}
			}
		}
	}
	JOINT left_hip
	{
		OFFSET	-82.8	-127.5	0.300001
		CHANNELS 3  Xrotation Yrotation Zrotation
		JOINT left_knee
		{
			OFFSET	-28.2	-396.7	2.2
			CHANNELS 3  Xrotation Yrotation Zrotation
			JOINT left_ankle
			{
				OFFSET	-11.7	-411.3	35.4
				CHANNELS 3  Xrotation Yrotation Zrotation
				JOINT left_toes
				{
					OFFSET	0	-60	-88.6
					CHANNELS 3  Xrotation Yrotation Zrotation
					JOINT left_foot_ee
					{
						OFFSET	-22.5	-16.5	-42.2
						CHANNELS 3  Xrotation Yrotation Zrotation
						End Site
						{
							OFFSET	1	0	0
						}
					}
				}
			}
		}
	}
	JOINT right_hip
	{
		OFFSET	82.8	-127.5	0.300001
		CHANNELS 3  Xrotation Yrotation Zrotation
		JOINT right_knee
		{
			OFFSET	28.2	-396.7	2.2
			CHANNELS 3  Xrotation Yrotation Zrotation
			JOINT right_ankle
			{
				OFFSET	11.7	-411.3	35.4
				CHANNELS 3  Xrotation Yrotation Zrotation
				JOINT right_toes
				{
					OFFSET	0	-60	-88.6
					CHANNELS 3  Xrotation Yrotation Zrotation
					JOINT right_foot_ee
					{
						OFFSET	22.5	-16.5	-42.2
						CHANNELS 3  Xrotation Yrotation Zrotation
						End Site
						{
							OFFSET	1	0	0
						}
					}
				}
			}
		}
	}
}
MOTION
Frames: 12
Frame Time: 0.02
391.555 721.904 -1204.45 -170.079317926 -53.0554464584 -175.74259108 1.45422 0.147351 0.209088 1.45423 0.133747 0.21804 1.45475 0.091032 0.239046 1.4547 0.127642 0.221669 -14.1138 2.09161 10.3855 -13.8143 -2.35134 10.5224 -0.0 0.0 -0.0 2.01839 10.1454 4.67326 -23.2932 -31.174 78.3777 0.58054 -16.0445 0.0818199 0.00941208 0.000331629 -0.00115629 1.54592 14.4541 15.7563 -0.0 0.0 -0.0 10.6591 -7.2837 -20.415 -79.7668 64.5782 6.65189 0.994192 26.2194 -0.231539 -9.76895 0.444804 -1.16555 -5.35512 0.741899 39.2082 0.0 0.0 0.0 15.8535 -23.5955 6.93454 -15.66 0.322073 2.37415 33.5609 26.5036 -4.55007 -10.0442 0.0 0.0 -0.0 0.0 -0.0 8.03339 -37.8569 14.4377 0.116734 0.00482456 0.0172641 11.3993 10.9463 1.70241 15.0692 -0.0 -0.0 0.0 0.0 0.0 
391.555 721.904 -1204.45 -170.148437786 -52.7555561258 -175.829246035 1.45422 0.147351 0.209088 1.45423 0.133747 0.21804 1.45475 0.091032 0.239046 1.4547 0.127642 0.221669 -14.1138 2.09161 10.3855 -13.8143 -2.35134 10.5224 -0.0 0.0 -0.0 2.01839 10.1454 4.67326 -23.2932 -31.174 78.3777 0.58054 -16.0445 0.0818199 0.00941208 0.000331629 -0.00115629 1.54592 14.4541 15.7563 -0.0 0.0 -0.0 10.6591 -7.2837 -20.415 -79.7668 64.5782 6.65189 0.994192 26.2194 -0.231539 -9.76895 0.444804 -1.16555 -5.35512 0.741899 39.2082 0.0 0.0 0.0 15.8535 -23.5955 6.93454 -15.66 0.322073 2.37415 33.5609 26.5036 -4.55007 -10.0442 0.0 0.0 -0.0 0.0 -0.0 8.03339 -37.8569 14.4377 0.116734 0.00482456 0.0172641 11.3993 10.9463 1.70241 15.0692 -0.0 -0.0 0.0 0.0 0.0 
391.555 721.904 -1204.45 -170.211204803 -52.4784827372 -175.908238264 1.45422 0.147351 0.209088 1.45423 0.133747 0.21804 1.45475 0.091032 0.239046 1.4547 0.127642 0.221669 -14.1138 2.09161 10.3855 -13.8143 -2.35134 10.5224 -0.0 0.0 -0.0 2.01839 10.1454 4.67326 -23.2932 -31.174 78.3777 0.58054 -16.0445 0.0818199 0.00941208 0.000331629 -0.00115629 1.54592 14.4541 15.7563 -0.0 0.0 -0.0 10.6591 -7.2837 -20.415 -79.7668 64.5782 6.65189 0.994192 26.2194 -0.231539 -9.76895 0.444804 -1.16555 -5.35512 0.741899 39.2082 0.0 0.0 0.0 15.8535 -23.5955 6.93454 -15.66 0.322073 2.37415 33.5609 26.5036 -4.55007 -10.0442 0.0 0.0 -0.0 0.0 -0.0 8.03339 -37.8569 14.4377 0.116734 0.00482456 0.0172641 11.3993 10.9463 1.70241 15.0692 -0.0 -0.0 0.0 0.0 0.0 
391.555 721.904 -1204.45 -170.372605456 -51.744353886 -176.112744028 1.45422 0.147351 0.209088 1.45423 0.133747 0.21804 1.45475 0.091032 0.239046 1.4547 0.127642 0.221669 -14.1138 2.09161 10.3855 -13.8143 -2.35134 10.5224 -0.0 0.0 -0.0 2.01839 10.1454 4.67326 -23.2932 -31.174 78.3777 0.58054 -16.0445 0.0818199 0.00941208 0.000331629 -0.00115629 1.54592 14.4541 15.7563 -0.0 0.0 -0.0 10.6591 -7.2837 -20.415 -79.7668 64.5782 6.65189 0.994192 26.2194 -0.231539 -9.76895 0.444804 -1.16555 -5.35512 0.741899 39.2082 0.0 0.0 0.0 15.8535 -23.5955 6.93454 -15.66 0.322073 2.37415 33.5609 26.5036 -4.55007 -10.0442 0.0 0.0 -0.0 0.0 -0.0 8.03339 -37.8569 14.4377 0.116734 0.00482456 0.0172641 11.3993 10.9463 1.70241 15.0692 -0.0 -0.0 0.0 0.0 0.0 
391.555 721.904 -1204.45 -170.481381718 -51.2310979003 -176.251758285 1.45422 0.147351 0.209088 1.45423 0.133747 0.21804 1.45475 0.091032 0.239046 1.4547 0.127642 0.221669 -14.1138 2.09161 10.3855 -13.8143 -2.35134 10.5224 -0.0 0.0 -0.0 2.01839 10.1454 4.67326 -23.2932 -31.174 78.3777 0.58054 -16.0445 0.0818199 0.00941208 0.000331629 -0.00115629 1.54592 14.4541 15.7563 -0.0 0.0 -0.0 10.6591 -7.2837 -20.415 -79.7668 64.5782 6.65189 0.994192 26.2194 -0.231539 -9.76895 0.444804 -1.16555 -5.35512 0.741899 39.2082 0.0 0.0 0.0 15.8535 -23.5955 6.93454 -15.66 0.322073 2.37415 33.5609 26.5036 -4.55007 -10.0442 0.0 0.0 -0.0 0.0 -0.0 8.03339 -37.8569 14.4377 0.116734 0.00482456 0.0172641 11.3993 10.9463 1.70241 15.0692 -0.0 -0.0 0.0 0.0 0.0 
391.555 721.904 -1204.45 -170.41853023 -51.5295331693 -176.171314434 1.45422 0.147351 0.209088 1.45423 0.133747 0.21804 1.45475 0.091032 0.239046 1.4547 0.127642 0.221669 -14.1138 2.09161 10.3855 -13.8143 -2.35134 10.5224 -0.0 0.0 -0.0 2.01839 10.1454 4.67326 -23.2932 -31.174 78.3777 0.58054 -16.0445 0.0818199 0.00941208 0.000331629 -0.00115629 1.54592 14.4541 15.7563 -0.0 0.0 -0.0 10.6591 -7.2837 -20.415 -79.7668 64.5782 6.65189 0.994192 26.2194 -0.231539 -9.76895 0.444804 -1.16555 -5.35512 0.741899 39.2082 0.0 0.0 0.0 15.8535 -23.5955 6.93454 -15.66 0.322073 2.37415 33.5609 26.5036 -4.55007 -10.0442 0.0 0.0 -0.0 0.0 -0.0 8.03339 -37.8569 14.4377 0.116734 0.00482456 0.0172641 11.3993 10.9463 1.70241 15.0692 -0.0 -0.0 0.0 0.0 0.0 
391.555 721.904 -1204.45 -170.478323762 -51.2457384834 -176.247836611 1.45422 0.147351 0.209088 1.45423 0.133747 0.21804 1.45475 0.091032 0.239046 1.4547 0.127642 0.221669 -14.1138 2.09161 10.3855 -13.8143 -2.35134 10.5224 -0.0 0.0 -0.0 2.01839 10.1454 4.67326 -23.2932 -31.174 78.3777 0.58054 -16.0445 0.0818199 0.00941208 0.000331629 -0.00115629 1.54592 14.4541 15.7563 -0.0 0.0 -0.0 10.6591 -7.2837 -20.415 -79.7668 64.5782 6.65189 0.994192 26.2194 -0.231539 -9.76895 0.444804 -1.16555 -5.35512 0.741899 39.2082 0.0 0.0 0.0 15.8535 -23.5955 6.93454 -15.66 0.322073 2.37415 33.5609 26.5036 -4.55007 -10.0442 0.0 0.0 -0.0 0.0 -0.0 8.03339 -37.8569 14.4377 0.116734 0.00482456 0.0172641 11.3993 10.9463 1.70241 15.0692 -0.0 -0.0 0.0 0.0 0.0 
391.555 721.904 -1204.45 -170.394870399 -51.6405433144 -176.141118036 1.45422 0.147351 0.209088 1.45423 0.133747 0.21804 1.45475 0.091032 0.239046 1.4547 0.127642 0.221669 -14.1138 2.09161 10.3855 -13.8143 -2.35134 10.5224 -0.0 0.0 -0.0 2.01839 10.1454 4.67326 -23.2932 -31.174 78.3777 0.58054 -16.0445 0.0818199 0.00941208 0.000331629 -0.00115629 1.54592 14.4541 15.7563 -0.0 0.0 -0.0 10.6591 -7.2837 -20.415 -79.7668 64.5782 6.65189 0.994192 26.2194 -0.231539 -9.76895 0.444804 -1.16555 -5.35512 0.741899 39.2082 0.0 0.0 0.0 15.8535 -23.5955 6.93454 -15.66 0.322073 2.37415 33.5609 26.5036 -4.55007 -10.0442 0.0 0.0 -0.0 0.0 -0.0 8.03339 -37.8569 14.4377 0.116734 0.00482456 0.0172641 11.3993 10.9463 1.70241 15.0692 -0.0 -0.0 0.0 0.0 0.0 
416.776772929 727.497 -1210.84405187 -170.293589423 -49.8225910132 -176.302599436 1.4332 0.0357813 0.280345 1.43324 0.0178698 0.282053 1.43333 -0.0348058 0.280467 1.43322 0.0099254 0.282444 -15.3192 5.00753 11.7199 -14.938 2.66881 12.7096 -0.0 0.0 -0.0 1.98936 8.14797 4.47817 -21.5482 -30.8528 75.7866 0.531555 -14.7523 0.0688124 0.285256 0.00996356 -0.0350686 1.56845 15.0016 16.0865 -0.0 0.0 -0.0 10.3546 -7.9286 -19.7552 -79.3753 64.8087 6.08127 1.15559 29.7878 -0.307357 -9.95156 0.454994 -1.18657 -5.40292 0.549867 39.5024 0.0 0.0 0.0 15.6729 -23.6334 7.91294 -16.7764 0.320089 2.54543 32.8139 26.4622 -4.46598 -9.75088 0.0 0.0 -0.0 0.0 -0.0 7.67724 -38.4689 15.1067 3.71174 0.170549 0.543876 8.22571 7.09841 1.2182 12.9858 -0.0 -0.0 0.0 0.0 0.0 
416.772612552 727.497 -1210.8604404 -170.286147526 -49.8592901686 -176.29286201 1.4332 0.0357813 0.280345 1.43324 0.0178698 0.282053 1.43333 -0.0348058 0.280467 1.43322 0.0099254 0.282444 -15.3192 5.00753 11.7199 -14.938 2.66881 12.7096 -0.0 0.0 -0.0 1.98936 8.14797 4.47817 -21.5482 -30.8528 75.7866 0.531555 -14.7523 0.0688124 0.285256 0.00996356 -0.0350686 1.56845 15.0016 16.0865 -0.0 0.0 -0.0 10.3546 -7.9286 -19.7552 -79.3753 64.8087 6.08127 1.15559 29.7878 -0.307357 -9.95156 0.454994 -1.18657 -5.40292 0.549867 39.5024 0.0 0.0 0.0 15.6729 -23.6334 7.91294 -16.7764 0.320089 2.54543 32.8139 26.4622 -4.46598 -9.75088 0.0 0.0 -0.0 0.0 -0.0 7.67724 -38.4689 15.1067 3.71174 0.170549 0.543876 8.22571 7.09841 1.2182 12.9858 -0.0 -0.0 0.0 0.0 0.0 
430.736171787 725.034 -1215.68808606 -170.749180403 -50.0677755539 -175.79139508 1.2769 -0.0326934 -0.108039 1.27691 -0.0257523 -0.109901 1.27696 -0.00459319 -0.112784 1.27694 -0.0223477 -0.110643 -12.8203 5.69641 11.3682 -12.4657 3.64174 12.5153 -0.0 0.0 -0.0 1.68458 7.60773 3.89602 -20.3025 -31.0271 76.4208 0.564815 -15.6314 0.0775284 0.120642 0.00423502 -0.0148254 1.63948 15.1426 16.5948 -0.0 0.0 -0.0 10.3488 -7.09398 -19.8297 -81.0444 65.1738 7.29493 0.960222 25.4384 -0.216738 -10.6348 0.493718 -1.26494 -5.38616 2.12104 40.3485 0.0 0.0 0.0 15.1642 -22.4319 8.46483 -17.0618 0.319046 2.5892 34.9688 25.8976 -4.68487 -9.69559 0.0 0.0 -0.0 0.0 -0.0 7.99779 -37.7748 14.6927 3.41733 0.155735 0.501143 11.143 6.7933 1.6301 13.5585 -0.0 -0.0 0.0 0.0 0.0 
430.827759103 725.034 -1215.36371584 -170.838982125 -49.6000980691 -175.908908195 1.2769 -0.0326934 -0.108039 1.27691 -0.0257523 -0.109901 1.27696 -0.00459319 -0.112784 1.27694 -0.0223477 -0.110643 -12.8203 5.69641 11.3682 -12.4657 3.64174 12.5153 -0.0 0.0 -0.0 1.68458 7.60773 3.89602 -20.3025 -31.0271 76.4208 0.564815 -15.6314 0.0775284 0.120642 0.00423502 -0.0148254 1.63948 15.1426 16.5948 -0.0 0.0 -0.0 10.3488 -7.09398 -19.8297 -81.0444 65.1738 7.29493 0.960222 25.4384 -0.216738 -10.6348 0.493718 -1.26494 -5.38616 2.12104 40.3485 0.0 0.0 0.0 15.1642 -22.4319 8.46483 -17.0618 0.319046 2.5892 34.9688 25.8976 -4.68487 -9.69559 0.0 0.0 -0.0 0.0 -0.0 7.99779 -37.7748 14.6927 3.41733 0.155735 0.501143 11.143 6.7933 1.6301 13.5585 -0.0 -0.0 0.0 0.0 0.0 
